<svg width="22" height="22" viewBox="0 0 22 22" fill="none" xmlns="http://www.w3.org/2000/svg">
<path fill-rule="evenodd" clip-rule="evenodd" d="M7.50237 9.95137H9.86618V1.24027H7.50237V9.95137ZM6.21094 11.1931H11.1568V0H6.21094V11.1931Z" fill="#072833"/>
<path fill-rule="evenodd" clip-rule="evenodd" d="M0 13.6487H21.0227V12.412H0V13.6487Z" fill="#072833"/>
<path fill-rule="evenodd" clip-rule="evenodd" d="M1.28669 18.4811H7.36329V16.1202H1.28669V18.4811ZM0 21.1174H1.28669V19.7163H8.65031V14.8839H0V21.1174Z" fill="#072833"/>
<path fill-rule="evenodd" clip-rule="evenodd" d="M16.077 1.24027V11.193H17.3677V3.72311L19.731 1.24126V11.193H21.0229V0H19.2088L17.3677 1.92789V0H15.5544L12.4211 3.25344V11.193H13.7134V3.7236L16.077 1.24027Z" fill="#072833"/>
<path fill-rule="evenodd" clip-rule="evenodd" d="M11.1963 18.4811H14.7816V16.1202H11.1963V18.4811ZM16.124 18.4811H19.7366V16.1202H16.124V18.4811ZM9.90894 19.7163H14.7817V21.1174H16.124V19.7163H21.0231V14.8839H9.90894V19.7163Z" fill="#072833"/>
<path fill-rule="evenodd" clip-rule="evenodd" d="M1.29217 3.7236L3.655 1.24126V9.95153H1.29217V3.7236ZM3.655 11.193H4.94659V0H3.13319L0.000244141 3.25344V11.193H3.655Z" fill="#072833"/>
</svg>
