<svg width="20" height="20" viewBox="0 0 20 20" fill="none" xmlns="http://www.w3.org/2000/svg">
<g clip-path="url(#clip0)">
<path d="M9.01564 14.0874C7.46517 13.9257 6.06719 13.5439 4.87031 12.6078C4.7218 12.4913 4.56847 12.379 4.43294 12.249C3.90907 11.7458 3.85628 11.1696 4.27082 10.5757C4.62544 10.0676 5.22074 9.93164 5.83951 10.2234C5.95932 10.28 6.07348 10.3506 6.18282 10.4264C8.41342 11.9591 11.4777 12.0014 13.7167 10.4953C13.9385 10.3252 14.1756 10.1866 14.4504 10.1158C14.9848 9.97856 15.4831 10.1748 15.7699 10.6424C16.0975 11.1763 16.0933 11.6974 15.6896 12.112C15.0705 12.7475 14.3258 13.2073 13.4984 13.5282C12.7161 13.8315 11.8591 13.9842 11.011 14.0856C11.139 14.2249 11.1993 14.2933 11.2793 14.3738C12.431 15.5309 13.5876 16.6831 14.7355 17.8438C15.1266 18.2393 15.2083 18.7296 14.993 19.1896C14.7575 19.6923 14.2305 20.0231 13.7137 19.9877C13.3863 19.965 13.131 19.8021 12.9042 19.5736C12.0351 18.699 11.1497 17.8406 10.2982 16.9496C10.0504 16.6905 9.93121 16.7395 9.71253 16.9645C8.83822 17.8645 7.94966 18.7508 7.05587 19.632C6.65454 20.0277 6.17695 20.0989 5.71152 19.8729C5.21676 19.633 4.90194 19.128 4.92623 18.6205C4.94299 18.2772 5.11182 18.0149 5.34747 17.7797C6.48717 16.6417 7.62374 15.5007 8.76072 14.3608C8.83591 14.285 8.90609 14.2045 9.01564 14.0874Z" fill="white"/>
<path d="M9.96006 10.1233C7.19407 10.1139 4.92597 7.82084 4.9421 5.05045C4.95802 2.24947 7.22758 -0.00773033 10.0208 1.98985e-05C12.8197 0.00756066 15.0662 2.29723 15.0522 5.12732C15.0379 7.89206 12.7541 10.1329 9.96006 10.1233ZM12.4739 5.05715C12.469 3.68159 11.3735 2.5865 10.0007 2.58525C8.61634 2.58378 7.51099 3.69877 7.52167 5.0869C7.53194 6.45722 8.63687 7.54456 10.0135 7.53953C11.3859 7.53471 12.4785 6.4325 12.4739 5.05715Z" fill="white"/>
</g>
<defs>
<clipPath id="clip0">
<rect width="20" height="20" fill="white"/>
</clipPath>
</defs>
</svg>
