<svg width="20" height="20" viewBox="0 0 20 20" fill="none" xmlns="http://www.w3.org/2000/svg">
<g clip-path="url(#clip0)">
<path d="M19.894 14.5999C19.8698 14.5477 19.8472 14.5044 19.8262 14.4697C19.4792 13.8448 18.8161 13.0777 17.8373 12.1682L17.8166 12.1474L17.8063 12.1372L17.7958 12.1267H17.7853C17.341 11.7032 17.0597 11.4185 16.9419 11.2727C16.7264 10.995 16.6781 10.7139 16.7959 10.4291C16.8791 10.2139 17.1918 9.75948 17.7331 9.06515C18.0178 8.69718 18.2433 8.40227 18.4099 8.18007C19.611 6.58331 20.1317 5.56295 19.9719 5.11861L19.9099 5.01477C19.8682 4.95226 19.7606 4.89507 19.5872 4.84291C19.4135 4.79087 19.1914 4.78226 18.9206 4.81694L15.9217 4.83766C15.8731 4.82044 15.8037 4.82205 15.7134 4.84291C15.6231 4.86377 15.5779 4.87424 15.5779 4.87424L15.5257 4.90032L15.4843 4.93165C15.4496 4.95237 15.4114 4.9888 15.3697 5.04088C15.3282 5.09279 15.2936 5.15369 15.2658 5.2231C14.9393 6.0631 14.5681 6.84409 14.1515 7.56602C13.8946 7.99651 13.6587 8.36959 13.4433 8.68547C13.2281 9.00125 13.0476 9.23391 12.9019 9.38305C12.756 9.53233 12.6244 9.65192 12.5061 9.74227C12.3881 9.83264 12.298 9.87083 12.2355 9.85686C12.173 9.84289 12.1141 9.82903 12.0583 9.81517C11.9612 9.75266 11.8831 9.66764 11.8242 9.56005C11.765 9.45245 11.7252 9.31703 11.7044 9.15389C11.6836 8.99064 11.6714 8.85022 11.6679 8.73216C11.6646 8.61424 11.6661 8.44745 11.6732 8.23227C11.6804 8.01697 11.6836 7.8713 11.6836 7.79492C11.6836 7.53108 11.6888 7.24474 11.6991 6.93581C11.7096 6.62689 11.7181 6.38212 11.7252 6.2018C11.7323 6.0213 11.7356 5.83033 11.7356 5.629C11.7356 5.42768 11.7233 5.26979 11.6991 5.15519C11.6752 5.04074 11.6385 4.92964 11.5901 4.82194C11.5414 4.71435 11.4701 4.63112 11.3766 4.57203C11.2829 4.51302 11.1664 4.46619 11.0278 4.43139C10.6598 4.34813 10.1912 4.30308 9.62185 4.29608C8.33069 4.28222 7.50105 4.3656 7.13311 4.5461C6.98733 4.62236 6.85541 4.72656 6.73746 4.85838C6.61247 5.01116 6.59504 5.09454 6.68527 5.10825C7.10186 5.17065 7.39677 5.31994 7.57035 5.55595L7.6329 5.68101C7.68155 5.77125 7.73013 5.931 7.77875 6.16004C7.8273 6.38909 7.85863 6.64247 7.87241 6.92002C7.90706 7.42688 7.90706 7.86076 7.87241 8.22169C7.83765 8.58277 7.80483 8.86386 7.7735 9.06519C7.74217 9.26652 7.69534 9.42966 7.6329 9.55458C7.57035 9.67953 7.52873 9.75591 7.50787 9.78363C7.48704 9.81134 7.46968 9.82881 7.4559 9.83567C7.36566 9.87025 7.27182 9.88786 7.17469 9.88786C7.07742 9.88786 6.95947 9.83921 6.82065 9.74197C6.68188 9.64474 6.53785 9.51118 6.38856 9.34107C6.23928 9.17092 6.07093 8.93316 5.88342 8.62774C5.69606 8.32232 5.50166 7.96135 5.30033 7.54483L5.13376 7.24277C5.02963 7.04844 4.88739 6.76549 4.70689 6.39416C4.52628 6.02269 4.36664 5.66336 4.22786 5.31625C4.17238 5.17047 4.08904 5.05949 3.97799 4.98311L3.92587 4.95178C3.89122 4.92406 3.8356 4.89463 3.7593 4.86326C3.68289 4.83193 3.60316 4.80947 3.51978 4.79564L0.666572 4.81636C0.375011 4.81636 0.177184 4.88241 0.073018 5.01433L0.0313299 5.07674C0.0105041 5.1115 0 5.16701 0 5.24342C0 5.31979 0.0208258 5.41352 0.0625139 5.52451C0.47903 6.50343 0.931983 7.44752 1.42137 8.35693C1.91076 9.26634 2.33603 9.99889 2.69692 10.5539C3.05789 11.1094 3.42583 11.6336 3.80073 12.1263C4.17563 12.6193 4.42379 12.9351 4.54521 13.0739C4.66677 13.213 4.76225 13.3169 4.83166 13.3863L5.09204 13.6362C5.25865 13.8028 5.5033 14.0024 5.82612 14.2349C6.14901 14.4676 6.50648 14.6966 6.89871 14.9224C7.291 15.1479 7.74739 15.3318 8.2681 15.4741C8.78875 15.6165 9.2955 15.6737 9.78842 15.6461H10.986C11.2288 15.6251 11.4128 15.5488 11.5379 15.417L11.5793 15.3648C11.6072 15.3233 11.6333 15.259 11.6573 15.1723C11.6817 15.0856 11.6938 14.99 11.6938 14.886C11.6867 14.5875 11.7094 14.3185 11.7614 14.0791C11.8133 13.8397 11.8724 13.6592 11.9386 13.5376C12.0047 13.4161 12.0793 13.3137 12.1624 13.2306C12.2456 13.1473 12.3049 13.0969 12.3397 13.0795C12.3743 13.062 12.4019 13.0502 12.4227 13.0431C12.5893 12.9876 12.7854 13.0413 13.0112 13.2046C13.2369 13.3677 13.4486 13.5692 13.6465 13.8086C13.8444 14.0482 14.0821 14.3171 14.3597 14.6155C14.6376 14.9141 14.8805 15.136 15.0886 15.282L15.2968 15.407C15.4359 15.4903 15.6164 15.5667 15.8386 15.6361C16.0604 15.7055 16.2547 15.7228 16.4215 15.6882L19.0872 15.6466C19.3509 15.6466 19.556 15.6029 19.7015 15.5163C19.8474 15.4295 19.934 15.3339 19.9619 15.23C19.9898 15.1259 19.9913 15.0078 19.9672 14.8757C19.9425 14.744 19.9182 14.6519 19.894 14.5999Z" fill="white"/>
</g>
<defs>
<clipPath id="clip0">
<rect width="20" height="20" fill="white"/>
</clipPath>
</defs>
</svg>
